<?xml version="1.0" encoding="UTF-8"?>
<svg id="Layer_2" data-name="Layer 2" xmlns="http://www.w3.org/2000/svg" viewBox="0 0 923.07 167.26">
  <defs>
    <style>
      .cls-1 {
        fill: #0033a0;
        stroke-width: 0px;
      }
    </style>
  </defs>
  <g id="Layer_1-2" data-name="Layer 1">
    <path class="cls-1" d="M916.16,153.37c-3.86,0-6.91,3.06-6.91,6.9s3.05,6.9,6.91,6.9,6.91-3.06,6.91-6.9c.02-3.79-3.04-6.88-6.83-6.9-.03,0-.05,0-.08,0M916.16,166.11c-3.16,0-5.86-2.58-5.86-5.84s2.7-5.83,5.86-5.83,5.85,2.57,5.85,5.83-2.69,5.84-5.85,5.84"/>
    <path class="cls-1" d="M919.55,158.44c0-1.62-1.32-1.99-2.69-1.99h-3.28v7.55h1.06v-3.49h1.28l2.25,3.49h1.27l-2.27-3.49c1.34-.04,2.38-.58,2.38-2.07M915.92,159.46h-1.28v-1.94h2.01c.82,0,1.84.14,1.84.91,0,1.2-1.65,1.04-2.57,1.04M871.89,167.26c1.39-3.78,2.58-7.63,3.56-11.53,1.96-8.15,2.95-16.51,2.95-24.9,0-4.91-.34-9.76-.99-14.53-.48,6.96-1.7,13.06-1.7,13.06.29.92.79,2.43,1.03,3.36h0c-.74,7.06-2.08,14.05-4.01,20.88-.91-3.37-2.14-6.62-2.22-6.83h0c-2.46,6.55-6.14,14.28-9.49,20.49h10.87Z"/>
    <path class="cls-1" d="M849.1,167.26h6.28c17.89-26.43,18.79-49.85,18.79-54.34,0-8.48-1.42-16.27-3.8-22.43,0,0-3.71-9.59-9.49-18.11.63,1.91,1.84,5.77,2.51,9.22.04.23.08.43.11.62,1.14,1.9,6.28,10.96,6.96,20.91v.03s-3.63-5.08-6.32-8.3c-.1,5.47-.81,10.95-1.95,16.24,0,0,5.38,6.23,7.78,10.24,0,0-1.64,8.76-5.14,17.15-3.57-5.19-8.13-10.23-8.13-10.23-2.67,6.59-6.04,13.23-9.79,19.36,0,0,6.81,7.97,8.31,10.25-2,3.37-3.95,6.3-6.12,9.38"/>
    <path class="cls-1" d="M826.7,167.26c11.87-13.28,21.99-28.9,28.07-45.63,5.27-14.51,8.14-32.23,3.48-47.99-.32-1.06-.68-2.11-1.07-3.14-1.49-3.86-3.43-7.22-5.54-9.86-5.68-6.36-12.11-12-19.15-16.82,1.02,1.31,1.96,2.68,2.8,4.1,0,0,8.58,6.36,13.56,12.83-6.39-4.55-10.01-6.39-10.48-6.63-.02,0-.04-.02-.05-.03,2.43,5.98,3.16,10.94,3.16,10.94,0,0,7.58,3.96,14.41,9.87.94,4.37,1.33,8.85,1.27,13.33-6.88-6.05-14.84-10.78-14.84-10.78-.15,5.12-.85,10.31-1.98,15.36,0,0,7.52,4.76,14.84,11.43,0,0-2.1,9.46-5.5,16.89-7.03-6.54-13.88-11.63-14.42-12.03,0,0-3.49,9.1-9.14,18.23,7.04,6.12,13.65,12.47,13.65,12.47-4.04,6.3-8.61,12.3-13.54,17.92h0s-12.59-12.53-12.59-12.53c-5.12,6.32-10.69,12.27-16.67,17.78.28.32,2.82,3.13,3.86,4.28h25.89Z"/>
    <path class="cls-1" d="M829.93,45.22c-.81-1.11-1.74-2.25-2.79-3.26-.93-.88-1.83-1.68-2.78-2.4-10.47-7.9-29.75-11.84-29.75-11.84,1.15.62,2.28,1.28,3.38,1.99.09.02,7.86,1.97,14.76,5.34,0,0-6.27-1.42-10.29-1.98,1.69,1.49,3.23,3.13,4.63,4.9,0,0,12.79,2.33,18.4,5.41,0,0,2.69,2.77,4.89,7.62-8.77-3.56-18.69-5.41-18.69-5.41,1.32,2.95,2.26,6.11,2.84,9.4,0,0,10.91,2.67,19.11,6.61.71,3.89.97,7.92.82,11.99-9.69-4.86-19.3-7.91-19.3-7.91-.2,4.2-.87,8.55-2,12.99,0,0,13.22,5.9,19.17,9.49-1.31,5.25-3.15,10.39-5.37,15.34-9.05-5.88-18.63-11.11-18.63-11.11-2.41,5.78-8.33,15.24-8.33,15.24h0c.15.11,10,6.87,17.56,12.87-3.75,5.69-7.99,11.15-12.59,16.35-1.59-1.52-16.11-14.41-16.11-14.41-4.38,5.08-9.26,10.03-14.61,14.77,0,0,0,0,0,0l14,15.84s0,0,0,0h0c-9.08,7.48-18.13,13.14-18.13,13.14l-11.68-16.58s-8.22,6.25-22.09,12.82v4.81h45.56c50.85-38.48,68.9-93.49,48.04-122.04"/>
    <path class="cls-1" d="M804.14,39.45c-12.63-17-32.4-14.57-38.3-13.75-6.48.91-11.37,2.32-11.37,2.32,1.45.14,3.42.39,4.84.68,1.05-.25,10.14-2.32,16.74-1.45h.02c-4.86.53-11.48,2.53-12.17,2.74,0,0,0,0-.02,0h.02c.24.08,2.15.66,4.6,2.09.72-.19,9.71-2.58,18.29-2.75h0s3.17,1.41,6.22,3.5c-11.08-.04-20.26,2.09-20.51,2.14,1.41,1.25,2.67,2.66,3.75,4.2,12.15-1.82,22.63-1.03,22.63-1.03,0,0,1.43,1.74,2.07,2.67.81,1.18,1.64,2.64,2.28,3.92-12.4-1.45-24.26-.41-24.27-.41.82,2.11,1.37,4.37,1.67,6.74,1.37-.01,11.87,0,25.25,2.42.43,3.07.47,6.35.13,9.82-2.27-.59-13.26-3.33-25.24-4.52-.24,2.99-.81,6.11-1.69,9.31,1.34.32,16.15,3.84,24.44,7.2-.16.52-.33,1.05-.5,1.57-1.19,3.56-2.67,7.13-4.43,10.7-6.68-3.29-23.05-9.69-23.05-9.69-1.64,3.66-3.64,7.37-5.98,11.07,0,0,14.04,8.01,20.8,12.45-3.22,4.58-6.74,8.95-10.54,13.07-4.9-4.4-17.17-13.9-18.09-14.62-3.96,4.71-8.94,9.66-10.43,11.13l14.72,16.88c-.14.12-.28.25-.42.37-3.19,2.64-6.62,5.13-9.52,7.12-2.52,1.71-4.59,3.03-5.31,3.5-.17-.26-9.81-15.65-11.25-18.09-1.05.78-2.12,1.53-3.19,2.27v31.63c1.73-.83,3.47-1.7,5.2-2.62,8.3-4.09,16.35-9.27,23.84-15.26,5.23-4.15,10.18-8.65,14.81-13.45,5.91-6.06,11.04-12.41,15.32-18.84,16.23-23.96,20.58-48.94,8.62-65.04"/>
    <path class="cls-1" d="M771.37,38.17c-6.02-6.9-16.03-9.27-27.66-7.6-.32.05-.65.09-.94.14-.9.15-1.8.33-2.69.53-1.8.42-3.03.83-3.75,1.11v3.48c1.14-.9,2.31-1.76,3.52-2.57,2.32-.5,4.57-.81,6.74-.95-3.36,1.92-7.24,4.52-10.26,6.92v2.68l.1.06s8.53-6.75,15.3-9.66c1.58.11,3.14.34,4.69.69-10.12,4.29-17.59,9.62-18.11,9.99.74.45,1.44.95,2.11,1.49.13-.08,9.94-6.22,20.74-9.9,1.46.67,2.88,1.5,4.1,2.45-11.76,3.3-23.06,9.21-23.06,9.21.64.74,1.2,1.55,1.68,2.4l.2-.08c12.04-5.15,24.82-7.79,24.82-7.79,1.02,1.41,1.85,2.95,2.45,4.59,0,0-11.48,1.31-26.24,6.05.65,2.04.83,3.57.83,3.59,0,0,13.92-3.11,26.76-3.46.18,2.06.12,4.38-.18,6.75-7.6-.4-25.71.56-26.42.62,0,0-.07,2.61-.74,5.06,0,0,13.23.43,25.27,2.67-.95,2.92-2.13,5.76-3.53,8.5-8.02-2.41-20.19-5.33-23.4-6.07-.87,2.13-1.93,4.18-3.16,6.13,0,0,14.87,6.49,20.58,9.67h.01,0c-2.48,3.72-7.39,8.91-7.39,8.91-1.34-1-2.69-2-4.04-2.99-3.94-2.76-9.8-6.86-13.35-9.33l-.03-.02v12.3l7.71,9.01c-2.47,1.99-5.05,3.86-7.71,5.59v7.34l.28-.18c3.62-2.47,7.09-5.15,10.4-8.02,26.61-23.16,37.52-54.17,24.36-69.27"/>
    <path class="cls-1" d="M736.34,73.41c6.8-9.68,7.78-20.79,1.81-26.21-.56-.51-1.17-.95-1.81-1.32v27.53ZM773.46,21.38c60.31,0,109.38,49.25,109.38,109.79,0,12.28-2.08,24.5-6.09,36.09h26.85V0h-167.26v27.9l.13-.05c11.86-4.29,24.38-6.49,36.99-6.48M666.35,53.33c-4.08-3.64-9.3-6.46-15.64-8.46-6.35-2-13.97-3-22.88-3h-45.09v83.49h45.09c16.03,0,28.44-3.47,37.23-10.41,8.8-6.94,13.19-17.38,13.19-31.33,0-6.23-.97-11.93-2.9-17.09-1.93-5.16-4.94-9.56-9.02-13.19M651.27,94.07c-.93,2.82-2.43,5.08-4.51,6.79-2.08,1.71-4.77,2.93-8.07,3.67-3.3.74-7.29,1.11-11.96,1.11h-19.7v-44.08h19.7c4.82,0,8.88.41,12.19,1.22,3.3.82,5.97,2.12,8.01,3.9,2.04,1.78,3.51,4.06,4.4,6.85.89,2.78,1.33,6.14,1.33,10.08,0,4.15-.47,7.64-1.39,10.46M486.9,91.07h45.64v-16.36h-45.64v-13.8h54.21l-.44-19.04h-78.04v83.49h80.26l.45-18.81h-56.44v-15.47ZM339.41,41.86l-.67,19.7h31.95v63.78h24.38v-63.79h31.95l-.55-19.7h-87.05ZM277.07,125.35h24.71V41.86h-24.71v83.49ZM208.5,83.38l.22,8.91-.22.22-6.35-6.46-45.19-44.19h-20.04v83.49h22.04v-43.86l-.22-9.02.33-.11,6.35,6.34,49.2,46.64h15.92V41.86h-22.04v41.52ZM69.8,88.95c0,6.31-1.78,11-5.34,14.08-3.56,3.08-9.28,4.62-17.14,4.62s-13.77-1.54-17.48-4.62c-3.71-3.08-5.57-7.77-5.57-14.08v-47.09H0v46.87c0,12.91,4.06,22.54,12.19,28.89,8.13,6.34,19.83,9.52,35.12,9.52s26.98-3.15,34.84-9.46c7.87-6.31,11.8-15.96,11.8-28.94v-46.87h-24.16v47.09Z"/>
  </g>
</svg>